<svg width="20" height="21" viewBox="0 0 20 21" fill="none" xmlns="http://www.w3.org/2000/svg">
<g clip-path="url(#clip0_503_1356)">
<path d="M10 5.5C9.38194 5.5 8.77775 5.68328 8.26384 6.02666C7.74994 6.37004 7.3494 6.8581 7.11288 7.42911C6.87635 8.00013 6.81447 8.62847 6.93505 9.23466C7.05563 9.84085 7.35325 10.3977 7.79029 10.8347C8.22733 11.2717 8.78415 11.5694 9.39034 11.69C9.99654 11.8105 10.6249 11.7486 11.1959 11.5121C11.7669 11.2756 12.255 10.8751 12.5983 10.3612C12.9417 9.84725 13.125 9.24307 13.125 8.625C13.125 7.7962 12.7958 7.00134 12.2097 6.41529C11.6237 5.82924 10.8288 5.5 10 5.5ZM10 10.5C9.62916 10.5 9.26665 10.39 8.95831 10.184C8.64997 9.97798 8.40964 9.68514 8.26773 9.34253C8.12581 8.99992 8.08868 8.62292 8.16103 8.25921C8.23338 7.89549 8.41195 7.5614 8.67418 7.29917C8.9364 7.03695 9.27049 6.85837 9.63421 6.78603C9.99792 6.71368 10.3749 6.75081 10.7175 6.89273C11.0601 7.03464 11.353 7.27496 11.559 7.58331C11.765 7.89165 11.875 8.25416 11.875 8.625C11.8744 9.12211 11.6767 9.59869 11.3252 9.9502C10.9737 10.3017 10.4971 10.4994 10 10.5Z" fill="#323232"/>
<path d="M10 1.75C8.26942 1.75 6.57769 2.26318 5.13876 3.22464C3.69983 4.1861 2.57832 5.55267 1.91606 7.15152C1.25379 8.75037 1.08051 10.5097 1.41813 12.207C1.75575 13.9044 2.58911 15.4635 3.81282 16.6872C5.03653 17.9109 6.59563 18.7442 8.29296 19.0819C9.9903 19.4195 11.7496 19.2462 13.3485 18.5839C14.9473 17.9217 16.3139 16.8002 17.2754 15.3612C18.2368 13.9223 18.75 12.2306 18.75 10.5C18.7474 8.18016 17.8247 5.95608 16.1843 4.3157C14.5439 2.67533 12.3198 1.75261 10 1.75ZM6.25 16.9853V16.125C6.25055 15.6279 6.44827 15.1513 6.79978 14.7998C7.15129 14.4483 7.62789 14.2505 8.125 14.25H11.875C12.3721 14.2505 12.8487 14.4483 13.2002 14.7998C13.5517 15.1513 13.7495 15.6279 13.75 16.125V16.9853C12.612 17.6498 11.3178 18 10 18C8.68218 18 7.38802 17.6498 6.25 16.9853ZM14.9953 16.0786C14.9829 15.2588 14.6488 14.4766 14.0652 13.9008C13.4815 13.3249 12.6949 13.0014 11.875 13H8.125C7.30507 13.0014 6.5185 13.3249 5.93483 13.9008C5.35116 14.4766 5.01712 15.2588 5.00469 16.0786C3.87129 15.0666 3.07202 13.7342 2.71271 12.2578C2.3534 10.7814 2.451 9.23071 2.99259 7.81104C3.53418 6.39136 4.4942 5.16967 5.74555 4.30773C6.99689 3.44579 8.48053 2.98427 10 2.98427C11.5195 2.98427 13.0031 3.44579 14.2545 4.30773C15.5058 5.16967 16.4658 6.39136 17.0074 7.81104C17.549 9.23071 17.6466 10.7814 17.2873 12.2578C16.928 13.7342 16.1287 15.0666 14.9953 16.0786Z" fill="#323232"/>
</g>
<defs>
<clipPath id="clip0_503_1356">
<rect width="20" height="20" fill="white" transform="translate(0 0.5)"/>
</clipPath>
</defs>
</svg>
