<svg width="20" height="20" viewBox="0 0 20 20" fill="none" xmlns="http://www.w3.org/2000/svg">
<g clip-path="url(#clip0_559_2144)">
<path d="M17.5 3.75C17.5 3.0625 16.9375 2.5 16.25 2.5H13.75V1.25H12.5V2.5H7.5V1.25H6.25V2.5H3.75C3.0625 2.5 2.5 3.0625 2.5 3.75V16.25C2.5 16.9375 3.0625 17.5 3.75 17.5H7.5V16.25H3.75V3.75H6.25V5H7.5V3.75H12.5V5H13.75V3.75H16.25V8.75H17.5V3.75Z" fill="#006144"/>
<path d="M12.5 11V12.25H16.6163L11.25 17.6163L12.1337 18.5L17.5 13.1338V17.25H18.75V11H12.5Z" fill="#006144"/>
</g>
<defs>
<clipPath id="clip0_559_2144">
<rect width="20" height="20" fill="white"/>
</clipPath>
</defs>
</svg>
