<svg width="20" height="20" viewBox="0 0 20 20" fill="none" xmlns="http://www.w3.org/2000/svg">
<g clip-path="url(#clip0_502_747)">
<path d="M16.25 1.25H5C4.66848 1.25 4.35054 1.3817 4.11612 1.61612C3.8817 1.85054 3.75 2.16848 3.75 2.5V5H2.5V6.25H3.75V9.375H2.5V10.625H3.75V13.75H2.5V15H3.75V17.5C3.75 17.8315 3.8817 18.1495 4.11612 18.3839C4.35054 18.6183 4.66848 18.75 5 18.75H16.25C16.5815 18.75 16.8995 18.6183 17.1339 18.3839C17.3683 18.1495 17.5 17.8315 17.5 17.5V2.5C17.5 2.16848 17.3683 1.85054 17.1339 1.61612C16.8995 1.3817 16.5815 1.25 16.25 1.25ZM16.25 17.5H5V15H6.25V13.75H5V10.625H6.25V9.375H5V6.25H6.25V5H5V2.5H16.25V17.5Z" fill="#323232"/>
<path d="M13.75 5H8.75V6.25H13.75V5Z" fill="#323232"/>
<path d="M13.75 9.375H8.75V10.625H13.75V9.375Z" fill="#323232"/>
<path d="M13.75 13.75H8.75V15H13.75V13.75Z" fill="#323232"/>
</g>
<defs>
<clipPath id="clip0_502_747">
<rect width="20" height="20" fill="white"/>
</clipPath>
</defs>
</svg>
