<svg width="20" height="20" viewBox="0 0 20 20" fill="none" xmlns="http://www.w3.org/2000/svg">
<g clip-path="url(#clip0_502_973)">
<path d="M7.5 10H3.75V11.25H7.5V10Z" fill="#323232"/>
<path d="M10 7.5H3.75V8.75H10V7.5Z" fill="#323232"/>
<path d="M10 5H3.75V6.25H10V5Z" fill="#323232"/>
<path d="M8.75 16.25H2.5V3.75H17.5V10H18.75V3.75C18.75 3.41848 18.6183 3.10054 18.3839 2.86612C18.1495 2.6317 17.8315 2.5 17.5 2.5H2.5C2.16848 2.5 1.85054 2.6317 1.61612 2.86612C1.3817 3.10054 1.25 3.41848 1.25 3.75V16.25C1.25 16.5815 1.3817 16.8995 1.61612 17.1339C1.85054 17.3683 2.16848 17.5 2.5 17.5H8.75V16.25Z" fill="#323232"/>
<path d="M13.75 15.9938L12.1312 14.375L11.25 15.2562L13.75 17.7562L18.75 12.7562L17.8688 11.875L13.75 15.9938Z" fill="#323232"/>
</g>
<defs>
<clipPath id="clip0_502_973">
<rect width="20" height="20" fill="white"/>
</clipPath>
</defs>
</svg>
