<svg width="76" height="13" viewBox="0 0 76 13" fill="none" xmlns="http://www.w3.org/2000/svg">
<g clip-path="url(#clip0_1728_108)">
<path d="M6.49999 0.812487C5.7518 0.807848 5.01013 0.951792 4.318 1.23597C3.62586 1.52015 2.99703 1.93892 2.46798 2.46798C1.93892 2.99703 1.52015 3.62586 1.23597 4.318C0.951792 5.01013 0.807848 5.7518 0.812487 6.49999C0.807848 7.24818 0.951792 7.98984 1.23597 8.68197C1.52015 9.37411 1.93892 10.0029 2.46798 10.532C2.99703 11.0611 3.62586 11.4798 4.318 11.764C5.01013 12.0482 5.7518 12.1921 6.49999 12.1875C7.24818 12.1921 7.98984 12.0482 8.68197 11.764C9.37411 11.4798 10.0029 11.0611 10.532 10.532C11.0611 10.0029 11.4798 9.37411 11.764 8.68197C12.0482 7.98984 12.1921 7.24818 12.1875 6.49999C12.1921 5.7518 12.0482 5.01013 11.764 4.318C11.4798 3.62586 11.0611 2.99703 10.532 2.46798C10.0029 1.93892 9.37411 1.52015 8.68197 1.23597C7.98984 0.951792 7.24818 0.807848 6.49999 0.812487ZM8.71198 9.34374L3.65624 4.28824L4.28824 3.65624L9.34374 8.71194L8.71198 9.34374Z" fill="#B90000"/>
</g>
<path d="M18.488 0.832H23.08C24.008 0.832 24.7333 1.09333 25.256 1.616C25.7893 2.13867 26.056 2.83733 26.056 3.712C26.056 4.128 25.9973 4.48 25.88 4.768C25.7627 5.056 25.6133 5.296 25.432 5.488C25.2507 5.66933 25.0533 5.808 24.84 5.904C24.6267 5.98933 24.4293 6.048 24.248 6.08V6.176C24.4507 6.18667 24.6747 6.24 24.92 6.336C25.176 6.432 25.416 6.58667 25.64 6.8C25.864 7.00267 26.0507 7.26933 26.2 7.6C26.36 7.92 26.44 8.30933 26.44 8.768C26.44 9.22667 26.3653 9.65333 26.216 10.048C26.0773 10.4427 25.88 10.784 25.624 11.072C25.368 11.36 25.064 11.5893 24.712 11.76C24.36 11.92 23.976 12 23.56 12H18.488V0.832ZM19.832 10.816H23.144C23.72 10.816 24.1733 10.672 24.504 10.384C24.8347 10.0853 25 9.65333 25 9.088V8.544C25 7.97867 24.8347 7.552 24.504 7.264C24.1733 6.96533 23.72 6.816 23.144 6.816H19.832V10.816ZM19.832 5.664H22.92C23.4533 5.664 23.8693 5.53067 24.168 5.264C24.4667 4.99733 24.616 4.61333 24.616 4.112V3.568C24.616 3.06667 24.4667 2.68267 24.168 2.416C23.8693 2.14933 23.4533 2.016 22.92 2.016H19.832V5.664ZM30.1731 12C29.7251 12 29.3838 11.8773 29.1491 11.632C28.9251 11.376 28.8131 11.056 28.8131 10.672V0.16H30.0931V10.88H31.3091V12H30.1731ZM36.2925 12.192C35.7378 12.192 35.2312 12.0907 34.7725 11.888C34.3138 11.6853 33.9192 11.3973 33.5885 11.024C33.2685 10.64 33.0178 10.1867 32.8365 9.664C32.6552 9.13067 32.5645 8.53333 32.5645 7.872C32.5645 7.22133 32.6552 6.62933 32.8365 6.096C33.0178 5.56267 33.2685 5.10933 33.5885 4.736C33.9192 4.352 34.3138 4.05867 34.7725 3.856C35.2312 3.65333 35.7378 3.552 36.2925 3.552C36.8472 3.552 37.3485 3.65333 37.7965 3.856C38.2552 4.05867 38.6498 4.352 38.9805 4.736C39.3112 5.10933 39.5672 5.56267 39.7485 6.096C39.9298 6.62933 40.0205 7.22133 40.0205 7.872C40.0205 8.53333 39.9298 9.13067 39.7485 9.664C39.5672 10.1867 39.3112 10.64 38.9805 11.024C38.6498 11.3973 38.2552 11.6853 37.7965 11.888C37.3485 12.0907 36.8472 12.192 36.2925 12.192ZM36.2925 11.056C36.9858 11.056 37.5512 10.8427 37.9885 10.416C38.4258 9.98933 38.6445 9.33867 38.6445 8.464V7.28C38.6445 6.40533 38.4258 5.75467 37.9885 5.328C37.5512 4.90133 36.9858 4.688 36.2925 4.688C35.5992 4.688 35.0338 4.90133 34.5965 5.328C34.1592 5.75467 33.9405 6.40533 33.9405 7.28V8.464C33.9405 9.33867 34.1592 9.98933 34.5965 10.416C35.0338 10.8427 35.5992 11.056 36.2925 11.056ZM45.1976 12.192C44.6216 12.192 44.1043 12.0907 43.6456 11.888C43.187 11.6853 42.7976 11.3973 42.4776 11.024C42.1683 10.6507 41.9283 10.1973 41.7576 9.664C41.5976 9.13067 41.5176 8.53333 41.5176 7.872C41.5176 7.21067 41.5976 6.61333 41.7576 6.08C41.9283 5.54667 42.1683 5.09333 42.4776 4.72C42.7976 4.34667 43.187 4.05867 43.6456 3.856C44.1043 3.65333 44.6216 3.552 45.1976 3.552C46.019 3.552 46.675 3.73333 47.1656 4.096C47.667 4.448 48.0403 4.912 48.2856 5.488L47.2136 6.032C47.0643 5.60533 46.819 5.27467 46.4776 5.04C46.1363 4.80533 45.7096 4.688 45.1976 4.688C44.8136 4.688 44.4776 4.752 44.1896 4.88C43.9016 4.99733 43.6616 5.168 43.4696 5.392C43.2776 5.60533 43.1336 5.86667 43.0376 6.176C42.9416 6.47467 42.8936 6.80533 42.8936 7.168V8.576C42.8936 9.30133 43.0856 9.89867 43.4696 10.368C43.8643 10.8267 44.4403 11.056 45.1976 11.056C46.2323 11.056 46.979 10.576 47.4376 9.616L48.3656 10.24C48.099 10.8373 47.699 11.312 47.1656 11.664C46.643 12.016 45.987 12.192 45.1976 12.192ZM50.1725 0.16H51.4525V7.664H51.5165L52.7805 6.256L55.1165 3.744H56.6685L53.6125 7.008L56.9725 12H55.4205L52.6845 7.792L51.4525 9.056V12H50.1725V0.16ZM61.4484 12.192C60.883 12.192 60.371 12.0907 59.9124 11.888C59.4644 11.6853 59.075 11.3973 58.7444 11.024C58.4244 10.64 58.1737 10.1867 57.9924 9.664C57.8217 9.13067 57.7364 8.53333 57.7364 7.872C57.7364 7.22133 57.8217 6.62933 57.9924 6.096C58.1737 5.56267 58.4244 5.10933 58.7444 4.736C59.075 4.352 59.4644 4.05867 59.9124 3.856C60.371 3.65333 60.883 3.552 61.4484 3.552C62.003 3.552 62.499 3.65333 62.9364 3.856C63.3737 4.05867 63.747 4.34133 64.0564 4.704C64.3657 5.056 64.6004 5.47733 64.7604 5.968C64.931 6.45867 65.0164 6.99733 65.0164 7.584V8.192H59.0804V8.576C59.0804 8.928 59.1337 9.25867 59.2404 9.568C59.3577 9.86667 59.5177 10.128 59.7204 10.352C59.9337 10.576 60.1897 10.752 60.4884 10.88C60.7977 11.008 61.1444 11.072 61.5284 11.072C62.051 11.072 62.5044 10.9493 62.8884 10.704C63.283 10.4587 63.587 10.1067 63.8004 9.648L64.7124 10.304C64.4457 10.8693 64.0297 11.328 63.4644 11.68C62.899 12.0213 62.227 12.192 61.4484 12.192ZM61.4484 4.624C61.0964 4.624 60.7764 4.688 60.4884 4.816C60.2004 4.93333 59.9497 5.104 59.7364 5.328C59.5337 5.552 59.3737 5.81867 59.2564 6.128C59.139 6.42667 59.0804 6.75733 59.0804 7.12V7.232H63.6404V7.056C63.6404 6.32 63.4377 5.73333 63.0324 5.296C62.6377 4.848 62.1097 4.624 61.4484 4.624ZM72.4056 10.656H72.3416C71.8403 11.68 71.035 12.192 69.9256 12.192C69.4136 12.192 68.9496 12.0907 68.5336 11.888C68.1176 11.6853 67.7603 11.3973 67.4616 11.024C67.1736 10.6507 66.9496 10.1973 66.7896 9.664C66.6403 9.13067 66.5656 8.53333 66.5656 7.872C66.5656 7.21067 66.6403 6.61333 66.7896 6.08C66.9496 5.54667 67.1736 5.09333 67.4616 4.72C67.7603 4.34667 68.1176 4.05867 68.5336 3.856C68.9496 3.65333 69.4136 3.552 69.9256 3.552C70.5016 3.552 70.9923 3.68 71.3976 3.936C71.8136 4.18133 72.1283 4.56533 72.3416 5.088H72.4056V0.16H73.6856V12H72.4056V10.656ZM70.2776 11.04C70.5656 11.04 70.8376 11.0027 71.0936 10.928C71.3603 10.8533 71.5896 10.7467 71.7816 10.608C71.9736 10.4587 72.123 10.2827 72.2296 10.08C72.347 9.86667 72.4056 9.62667 72.4056 9.36V6.288C72.4056 6.064 72.347 5.856 72.2296 5.664C72.123 5.46133 71.9736 5.29067 71.7816 5.152C71.5896 5.01333 71.3603 4.90667 71.0936 4.832C70.8376 4.74667 70.5656 4.704 70.2776 4.704C69.5523 4.704 68.9816 4.93333 68.5656 5.392C68.1496 5.84 67.9416 6.432 67.9416 7.168V8.576C67.9416 9.312 68.1496 9.90933 68.5656 10.368C68.9816 10.816 69.5523 11.04 70.2776 11.04Z" fill="#B90000"/>
<defs>
<clipPath id="clip0_1728_108">
<rect width="13" height="13" fill="white"/>
</clipPath>
</defs>
</svg>
