<svg width="20" height="20" viewBox="0 0 20 20" fill="none" xmlns="http://www.w3.org/2000/svg">
<g clip-path="url(#clip0_502_737)">
<path d="M15 18.75H5C4.6686 18.7496 4.35087 18.6178 4.11654 18.3835C3.8822 18.1491 3.75038 17.8314 3.75 17.5V2.5C3.75033 2.16858 3.88213 1.85083 4.11648 1.61648C4.35083 1.38213 4.66858 1.25033 5 1.25H15C15.3314 1.25038 15.6491 1.3822 15.8835 1.61654C16.1178 1.85087 16.2496 2.1686 16.25 2.5V12.8864L13.125 11.3239L10 12.8864V2.5H5V17.5H15V15H16.25V17.5C16.2496 17.8314 16.1177 18.1491 15.8834 18.3834C15.6491 18.6177 15.3314 18.7496 15 18.75ZM13.125 9.92612L15 10.8636V2.5H11.25V10.8636L13.125 9.92612Z" fill="#323232"/>
</g>
<defs>
<clipPath id="clip0_502_737">
<rect width="20" height="20" fill="white"/>
</clipPath>
</defs>
</svg>
