<svg width="20" height="20" viewBox="0 0 20 20" fill="none" xmlns="http://www.w3.org/2000/svg">
<g clip-path="url(#clip0_502_707)">
<path d="M17.5 3.75H5C4.25 3.75 3.75 4.25 3.75 5V13.75C3.75 14.5 4.25 15 5 15H10V13.75H5V5H17.5V13.75H13L10 18L11 18.75L13.625 15H17.5C18.25 15 18.75 14.5 18.75 13.75V5C18.75 4.25 18.25 3.75 17.5 3.75Z" fill="#323232"/>
<path d="M2.5 11.25H1.25V3.125C1.25 2.0625 2.0625 1.25 3.125 1.25H11.25V2.5H3.125C2.75 2.5 2.5 2.75 2.5 3.125V11.25Z" fill="#323232"/>
</g>
<defs>
<clipPath id="clip0_502_707">
<rect width="20" height="20" fill="white"/>
</clipPath>
</defs>
</svg>
