<svg width="30" height="30" viewBox="0 0 30 30" fill="none" xmlns="http://www.w3.org/2000/svg">
<path fill-rule="evenodd" clip-rule="evenodd" d="M26.85 24.1967C28.8918 21.5658 30 18.3303 30 15H27C27 21.6274 21.6274 27 15 27C8.37261 27 3.00002 21.6274 3.00002 15C3.00002 8.3726 8.37261 3.00002 15 3.00002C17.3749 3.00002 19.5886 3.6899 21.4518 4.88019L23.0637 2.35182C20.2556 0.561545 16.9316 -0.243331 13.6155 0.0640486C10.2995 0.371428 7.18005 1.77358 4.74886 4.04951C2.31766 6.32544 0.712988 9.34571 0.187754 12.6343C-0.337479 15.9228 0.246599 19.2927 1.84793 22.2127C3.44925 25.1327 5.97677 27.4367 9.03209 28.7617C12.0874 30.0867 15.4968 30.3572 18.7228 29.5307C21.9489 28.7042 24.8081 26.8276 26.85 24.1967Z" fill="#006144"/>
</svg>
