<svg width="20" height="21" viewBox="0 0 20 21" fill="none" xmlns="http://www.w3.org/2000/svg">
<g clip-path="url(#clip0_503_1377)">
<path d="M3.75 19.25H11.25C11.5814 19.2496 11.8991 19.1178 12.1335 18.8835C12.3678 18.6491 12.4996 18.3314 12.5 18V16.125H11.25V18H3.75V3H11.25V4.875H12.5V3C12.4996 2.6686 12.3678 2.35087 12.1335 2.11654C11.8991 1.8822 11.5814 1.75038 11.25 1.75H3.75C3.4186 1.75038 3.10087 1.8822 2.86654 2.11654C2.6322 2.35087 2.50038 2.6686 2.5 3V18C2.50038 18.3314 2.6322 18.6491 2.86654 18.8835C3.10087 19.1178 3.4186 19.2496 3.75 19.25Z" fill="#B90000"/>
<path d="M12.8663 13.3663L15.1075 11.125H6.25V9.875H15.1075L12.8663 7.63375L13.75 6.75L17.5 10.5L13.75 14.25L12.8663 13.3663Z" fill="#B90000"/>
</g>
<defs>
<clipPath id="clip0_503_1377">
<rect width="20" height="20" fill="white" transform="translate(0 0.5)"/>
</clipPath>
</defs>
</svg>
