<svg width="20" height="20" viewBox="0 0 20 20" fill="none" xmlns="http://www.w3.org/2000/svg">
<g clip-path="url(#clip0_538_1591)">
<path d="M18.125 17.2412L13.405 12.5211C14.5392 11.1595 15.1047 9.41298 14.984 7.64495C14.8633 5.87692 14.0657 4.22349 12.7569 3.02861C11.4482 1.83373 9.72922 1.1894 7.95753 1.22966C6.18584 1.26992 4.49788 1.99167 3.24479 3.24476C1.99169 4.49786 1.26994 6.18582 1.22968 7.95751C1.18942 9.72919 1.83375 11.4482 3.02863 12.7569C4.22351 14.0656 5.87695 14.8633 7.64498 14.984C9.413 15.1047 11.1595 14.5391 12.5212 13.4049L17.2412 18.125L18.125 17.2412ZM2.50003 8.125C2.50003 7.01248 2.82993 5.92494 3.44801 4.99992C4.06609 4.07489 4.9446 3.35392 5.97243 2.92818C7.00027 2.50243 8.13127 2.39104 9.22241 2.60808C10.3136 2.82512 11.3158 3.36085 12.1025 4.14752C12.8892 4.9342 13.4249 5.93647 13.6419 7.02762C13.859 8.11876 13.7476 9.24976 13.3218 10.2776C12.8961 11.3054 12.1751 12.1839 11.2501 12.802C10.3251 13.4201 9.23755 13.75 8.12503 13.75C6.63369 13.7483 5.20391 13.1552 4.14938 12.1006C3.09484 11.0461 2.50168 9.61634 2.50003 8.125Z" fill="#323232"/>
</g>
<defs>
<clipPath id="clip0_538_1591">
<rect width="20" height="20" fill="white"/>
</clipPath>
</defs>
</svg>
