<svg width="20" height="20" viewBox="0 0 20 20" fill="none" xmlns="http://www.w3.org/2000/svg">
<g clip-path="url(#clip0_502_981)">
<path d="M16.875 10.475C16.875 10.3187 16.875 10.1625 16.875 9.99999C16.875 9.83749 16.875 9.68124 16.875 9.51874L18.075 8.46874C18.2962 8.27378 18.4413 8.00689 18.4848 7.71524C18.5283 7.4236 18.4672 7.12599 18.3125 6.87499L16.8375 4.37499C16.7279 4.18516 16.5703 4.02748 16.3805 3.91778C16.1907 3.80808 15.9754 3.75022 15.7562 3.74999C15.6204 3.74895 15.4853 3.77006 15.3562 3.81249L13.8375 4.32499C13.5753 4.15075 13.3017 3.99415 13.0187 3.85624L12.7 2.28124C12.6428 1.9935 12.4863 1.73502 12.2578 1.55106C12.0292 1.3671 11.7433 1.26937 11.45 1.27499H8.52497C8.23166 1.26937 7.94571 1.3671 7.71719 1.55106C7.48867 1.73502 7.33213 1.9935 7.27497 2.28124L6.95622 3.85624C6.67118 3.99412 6.39558 4.15071 6.13122 4.32499L4.64372 3.78749C4.51329 3.75351 4.37821 3.74085 4.24372 3.74999C4.02452 3.75022 3.80923 3.80808 3.61945 3.91778C3.42967 4.02748 3.27208 4.18516 3.16247 4.37499L1.68747 6.87499C1.54159 7.12561 1.48738 7.41915 1.53413 7.70535C1.58088 7.99154 1.72568 8.25257 1.94372 8.44374L3.12497 9.52499C3.12497 9.68124 3.12497 9.83749 3.12497 9.99999C3.12497 10.1625 3.12497 10.3187 3.12497 10.4812L1.94372 11.5312C1.71952 11.7237 1.57076 11.9895 1.52385 12.2812C1.47694 12.573 1.53491 12.8719 1.68747 13.125L3.16247 15.625C3.27208 15.8148 3.42967 15.9725 3.61945 16.0822C3.80923 16.1919 4.02452 16.2498 4.24372 16.25C4.37957 16.251 4.51467 16.2299 4.64372 16.1875L6.16247 15.675C6.42469 15.8492 6.69821 16.0058 6.98122 16.1437L7.29997 17.7187C7.35713 18.0065 7.51367 18.265 7.74219 18.4489C7.97071 18.6329 8.25666 18.7306 8.54997 18.725H11.5C11.7933 18.7306 12.0792 18.6329 12.3078 18.4489C12.5363 18.265 12.6928 18.0065 12.75 17.7187L13.0687 16.1437C13.3538 16.0059 13.6294 15.8493 13.8937 15.675L15.4062 16.1875C15.5353 16.2299 15.6704 16.251 15.8062 16.25C16.0254 16.2498 16.2407 16.1919 16.4305 16.0822C16.6203 15.9725 16.7779 15.8148 16.8875 15.625L18.3125 13.125C18.4584 12.8744 18.5126 12.5808 18.4658 12.2946C18.4191 12.0085 18.2743 11.7474 18.0562 11.5562L16.875 10.475ZM15.7562 15L13.6125 14.275C13.1106 14.7001 12.5371 15.0323 11.9187 15.2562L11.475 17.5H8.52497L8.08122 15.2812C7.46774 15.051 6.8973 14.7193 6.39372 14.3L4.24372 15L2.76872 12.5L4.46872 11C4.35316 10.353 4.35316 9.69071 4.46872 9.04374L2.76872 7.49999L4.24372 4.99999L6.38747 5.72499C6.88931 5.29993 7.46285 4.96765 8.08122 4.74374L8.52497 2.49999H11.475L11.9187 4.71874C12.5322 4.94901 13.1026 5.28071 13.6062 5.69999L15.7562 4.99999L17.2312 7.49999L15.5312 8.99999C15.6468 9.64696 15.6468 10.3093 15.5312 10.9562L17.2312 12.5L15.7562 15Z" fill="#323232"/>
<path d="M10 13.75C9.25832 13.75 8.5333 13.5301 7.91661 13.118C7.29993 12.706 6.81928 12.1203 6.53545 11.4351C6.25162 10.7498 6.17736 9.99584 6.32206 9.26841C6.46675 8.54098 6.8239 7.8728 7.34835 7.34835C7.8728 6.8239 8.54098 6.46675 9.26841 6.32206C9.99584 6.17736 10.7498 6.25162 11.4351 6.53545C12.1203 6.81928 12.706 7.29993 13.118 7.91661C13.5301 8.5333 13.75 9.25832 13.75 10C13.755 10.4939 13.6614 10.9837 13.4748 11.441C13.2881 11.8982 13.0121 12.3136 12.6628 12.6628C12.3136 13.0121 11.8982 13.2881 11.441 13.4748C10.9837 13.6614 10.4939 13.755 10 13.75ZM10 7.5C9.66959 7.4923 9.34105 7.55171 9.03426 7.67462C8.72747 7.79753 8.44879 7.9814 8.2151 8.2151C7.9814 8.44879 7.79753 8.72747 7.67462 9.03426C7.55171 9.34105 7.4923 9.66959 7.5 10C7.4923 10.3304 7.55171 10.6589 7.67462 10.9657C7.79753 11.2725 7.9814 11.5512 8.2151 11.7849C8.44879 12.0186 8.72747 12.2025 9.03426 12.3254C9.34105 12.4483 9.66959 12.5077 10 12.5C10.3304 12.5077 10.6589 12.4483 10.9657 12.3254C11.2725 12.2025 11.5512 12.0186 11.7849 11.7849C12.0186 11.5512 12.2025 11.2725 12.3254 10.9657C12.4483 10.6589 12.5077 10.3304 12.5 10C12.5077 9.66959 12.4483 9.34105 12.3254 9.03426C12.2025 8.72747 12.0186 8.44879 11.7849 8.2151C11.5512 7.9814 11.2725 7.79753 10.9657 7.67462C10.6589 7.55171 10.3304 7.4923 10 7.5Z" fill="#323232"/>
</g>
<defs>
<clipPath id="clip0_502_981">
<rect width="20" height="20" fill="white"/>
</clipPath>
</defs>
</svg>
