<svg width="20" height="20" viewBox="0 0 20 20" fill="none" xmlns="http://www.w3.org/2000/svg">
<g clip-path="url(#clip0_541_1993)">
<path d="M2.5 2.5H17.5C18.1875 2.5 18.75 3.0625 18.75 3.75V16.25C18.75 16.9375 18.1875 17.5 17.5 17.5H2.5C1.8125 17.5 1.25 16.9375 1.25 16.25V3.75C1.25 3.0625 1.8125 2.5 2.5 2.5ZM13.75 16.25H17.5V3.75H13.75V16.25ZM2.5 16.25H12.5V10.625H6.125L8.375 12.875L7.5 13.75L3.75 10L7.5 6.25L8.375 7.125L6.125 9.375H12.5V3.75H2.5V16.25Z" fill="#323232"/>
</g>
<defs>
<clipPath id="clip0_541_1993">
<rect width="20" height="20" fill="white"/>
</clipPath>
</defs>
</svg>
